<svg xmlns="http://www.w3.org/2000/svg" version="1.1" xmlns:xlink="http://www.w3.org/1999/xlink" viewBox="0 0 200 200"><rect width="200" height="200" fill="url('#gradient')"></rect><defs><linearGradient id="gradient" gradientTransform="rotate(360 0.5 0.5)"><stop offset="0%" stop-color="#45bbff"></stop><stop offset="100%" stop-color="#eff6ff"></stop></linearGradient></defs><g><g fill="#155dfc" transform="matrix(6.824139207700852,0,0,6.824139207700852,10.195145235673792,148.51900554435952)" stroke="#155dfc" stroke-width="0.2"><path d="M9.98 0L9.15-2.66L4.45-2.66L3.63 0L-0.03 0L5.19-14.22L8.41-14.22L13.66 0L9.98 0ZM6.80-10.23L5.27-5.30L8.33-5.30L6.80-10.23ZM17.68-14.22L20-9.49L22.32-14.22L26.24-14.22L22.27-7.17L26.35 0L22.39 0L20-4.81L17.61 0L13.66 0L17.73-7.17L13.77-14.22L17.68-14.22Z"></path></g></g></svg>